<svg id="Layer_1" data-name="Layer 1" xmlns="http://www.w3.org/2000/svg" xmlns:xlink="http://www.w3.org/1999/xlink" viewBox="0 0 84.5 9.57"><defs><style>.cls-1{fill:url(#Безымянный_градиент_10);}</style><linearGradient id="Безымянный_градиент_10" y1="4.78" x2="84.5" y2="4.78" gradientUnits="userSpaceOnUse"><stop offset="0.54" stop-color="#e74c3c"/><stop offset="1" stop-color="#ffda00"/></linearGradient></defs><path class="cls-1" d="M77.83,6C74.58,7.28,70.9,8.53,67,8.22c-4.75-.37-8.37-3-13.14-3.27-6.49-.37-11.3,3.7-17.68,4.47-5.68.71-11.22-1.25-16.31-2.9A99.1,99.1,0,0,0,0,2.11V0A84.52,84.52,0,0,1,22.64,5c4.65,1.65,9.69,3.6,15,3.06,6-.61,10.76-4.3,16.79-3.82,4.44.36,7.65,2.9,12.06,3.35,3.58.37,7.09-.71,10.21-1.82a35.72,35.72,0,0,1,7.8-2.11v.16A45.64,45.64,0,0,0,77.83,6Z"/></svg>